HIERARCHY
ROOT Hips
{
	OFFSET 0.000000 0.000000 0.000000
	CHANNELS 6 Xposition Yposition Zposition Zrotation Yrotation Xrotation 
	JOINT LHipJoint
	{
		OFFSET 0.000000 0.000000 0.000000
		CHANNELS 3 Zrotation Yrotation Xrotation
		JOINT LeftUpLeg
		{
			OFFSET 1.363060 -1.794630 0.839290
			CHANNELS 3 Zrotation Yrotation Xrotation
			JOINT LeftLeg
			{
				OFFSET 2.448110 -6.726130 0.000000
				CHANNELS 3 Zrotation Yrotation Xrotation
				JOINT LeftFoot
				{
					OFFSET 2.562200 -7.039590 0.000000
					CHANNELS 3 Zrotation Yrotation Xrotation
					JOINT LeftToeBase
					{
						OFFSET 0.157640 -0.433110 2.322550
						CHANNELS 3 Zrotation Yrotation Xrotation
						End Site
						{
							OFFSET 0.000000 0.000000 0.000000
						}
					}
				}
			}
		}
	}
	JOINT RHipJoint
	{
		OFFSET 0.000000 0.000000 0.000000
		CHANNELS 3 Zrotation Yrotation Xrotation
		JOINT RightUpLeg
		{
			OFFSET -1.305520 -1.794630 0.839290
			CHANNELS 3 Zrotation Yrotation Xrotation
			JOINT RightLeg
			{
				OFFSET -2.542530 -6.985550 0.000000
				CHANNELS 3 Zrotation Yrotation Xrotation
				JOINT RightFoot
				{
					OFFSET -2.568260 -7.056230 0.000000
					CHANNELS 3 Zrotation Yrotation Xrotation
					JOINT RightToeBase
					{
						OFFSET -0.164730 -0.452590 2.363150
						CHANNELS 3 Zrotation Yrotation Xrotation
						End Site
						{
							OFFSET 0.000000 0.000000 0.000000
						}
					}
				}
			}
		}
	}
	JOINT LowerBack
	{
		OFFSET 0.000000 0.000000 0.000000
		CHANNELS 3 Zrotation Yrotation Xrotation
		JOINT Spine
		{
			OFFSET 0.028270 2.035590 -0.193380
			CHANNELS 3 Zrotation Yrotation Xrotation
			JOINT Spine1
			{
				OFFSET 0.056720 2.048850 -0.042750
				CHANNELS 3 Zrotation Yrotation Xrotation
				JOINT Neck
				{
					OFFSET 0.000000 0.000000 0.000000
					CHANNELS 3 Zrotation Yrotation Xrotation
					JOINT Neck1
					{
						OFFSET -0.054170 1.746240 0.172020
						CHANNELS 3 Zrotation Yrotation Xrotation
						JOINT Head
						{
							OFFSET 0.104070 1.761360 -0.123970
							CHANNELS 3 Zrotation Yrotation Xrotation
							End Site
							{
								OFFSET 0.000000 0.000000 0.000000
							}
						}
					}
				}
				JOINT LeftShoulder
				{
					OFFSET 0.000000 0.000000 0.000000
					CHANNELS 3 Zrotation Yrotation Xrotation
					JOINT LeftArm
					{
						OFFSET 3.362410 1.200890 -0.311210
						CHANNELS 3 Zrotation Yrotation Xrotation
						JOINT LeftForeArm
						{
							OFFSET 4.983000 -0.000000 -0.000000
							CHANNELS 3 Zrotation Yrotation Xrotation
							JOINT LeftHand
							{
								OFFSET 3.483560 -0.000000 -0.000000
								CHANNELS 3 Zrotation Yrotation Xrotation
								JOINT LeftFingerBase
								{
									OFFSET 0.000000 0.000000 0.000000
									CHANNELS 3 Zrotation Yrotation Xrotation
									JOINT LeftHandIndex1
									{
										OFFSET 0.715260 -0.000000 -0.000000
										CHANNELS 3 Zrotation Yrotation Xrotation
										End Site
										{
											OFFSET 0.000000 0.000000 0.000000
										}
									}
								}
								JOINT LThumb
								{
									OFFSET 0.000000 0.000000 0.000000
									CHANNELS 3 Zrotation Yrotation Xrotation
									End Site
									{
										OFFSET 0.000000 0.000000 0.000000
									}
								}
							}
						}
					}
				}
				JOINT RightShoulder
				{
					OFFSET 0.000000 0.000000 0.000000
					CHANNELS 3 Zrotation Yrotation Xrotation
					JOINT RightArm
					{
						OFFSET -3.136600 1.374050 -0.404650
						CHANNELS 3 Zrotation Yrotation Xrotation
						JOINT RightForeArm
						{
							OFFSET -5.241900 -0.000000 -0.000000
							CHANNELS 3 Zrotation Yrotation Xrotation
							JOINT RightHand
							{
								OFFSET -3.444170 -0.000000 -0.000000
								CHANNELS 3 Zrotation Yrotation Xrotation
								JOINT RightFingerBase
								{
									OFFSET 0.000000 0.000000 0.000000
									CHANNELS 3 Zrotation Yrotation Xrotation
									JOINT RightHandIndex1
									{
										OFFSET -0.622530 -0.000000 -0.000000
										CHANNELS 3 Zrotation Yrotation Xrotation
										End Site
										{
											OFFSET 0.000000 0.000000 0.000000
										}
									}
								}
								JOINT RThumb
								{
									OFFSET 0.000000 0.000000 0.000000
									CHANNELS 3 Zrotation Yrotation Xrotation
									End Site
									{
										OFFSET 0.000000 0.000000 0.000000
									}
								}
							}
						}
					}
				}
			}
		}
	}
}
MOTION
Frames: 7
Frame Time: 0.008333
4.994831 17.299450 0.909145 -176.477336 -64.901266 -174.403810 -12.181755 2.466191 -0.624830 -6.827461 30.677701 -14.003410 -2.720832 -1.390103 3.085113 1.869599 13.741348 -4.617985 0.673600 0.000000 -25.603000 8.003837 -3.114747 6.909924 5.004764 10.209084 -12.674877 3.483479 1.493349 -1.444450 1.398248 9.087292 2.447696 1.100800 0.000000 -32.803100 3.924760 1.344468 -8.744526 0.046973 0.748552 -5.620954 -5.066801 0.780032 -5.957929 6.083393 2.708099 7.501237 -1.957905 -0.361338 4.204146 0.000000 0.000000 0.000000 10.193841 7.604222 -6.479400 -36.079088 -70.785313 -35.934476 175.054169 -58.931363 179.558289 23.398192 -19.071104 -4.344192 -0.257749 1.413274 -0.000000 0.000000 0.000000 0.000000 0.000000 0.000000 0.000000 0.260898 0.525609 -8.669482 79.099515 64.332103 2.916795 -175.091082 58.462667 179.675764 -12.261903 25.350098 -2.905236 -0.149558 -1.355569 0.000000 0.000000 0.000000 0.000000 0.000000 0.000000 0.000000 
4.989435 17.300316 0.910391 -176.544875 -64.197394 -174.122710 -12.184891 2.455670 -0.673183 -7.018380 30.923662 -14.257431 -2.734627 -1.394201 3.160574 1.921687 14.066871 -4.704802 0.674400 -0.000000 -25.425700 7.974764 -3.109452 7.015358 4.897816 10.614350 -13.142596 3.496615 1.472370 -1.217138 1.438887 9.394002 2.509131 1.162800 -0.000001 -32.873100 3.987734 1.357481 -8.797199 0.070125 0.753172 -5.657803 -5.032580 0.779578 -6.070072 6.113992 2.757474 7.473010 -1.933105 -0.360053 4.199951 0.000000 0.000000 0.000000 10.334438 7.527303 -6.533287 -34.500016 -70.548115 -37.583511 175.083672 -59.638809 179.553296 23.863108 -19.391844 -4.503729 -0.263955 1.412238 -0.000000 0.000000 0.000000 0.000000 0.000000 0.000000 0.000000 0.254215 0.690858 -8.636763 79.454223 64.368389 3.211287 -175.098778 58.602284 179.675058 -12.286009 25.341952 -2.909939 -0.150209 -1.355175 0.000000 0.000000 0.000000 0.000000 0.000000 0.000000 0.000000 
4.985531 17.300802 0.912095 -176.612230 -63.482583 -173.837395 -12.185867 2.447158 -0.730606 -7.218858 31.193328 -14.521581 -2.753575 -1.395233 3.232210 1.969207 14.361305 -4.782360 0.674700 0.000000 -25.279900 7.948497 -3.097154 7.114237 4.783569 11.014492 -13.606937 3.509413 1.453642 -1.008096 1.480231 9.704637 2.581533 1.227000 -0.000000 -32.966700 4.037951 1.348378 -8.832181 0.093463 0.736730 -5.696006 -4.996774 0.757458 -6.202600 6.155950 2.808115 7.441717 -1.905654 -0.358616 4.195459 0.000000 0.000000 0.000000 10.501060 7.389938 -6.593176 -32.671605 -70.222506 -39.487849 175.139491 -60.521090 179.548040 24.365087 -19.868440 -4.709379 -0.269501 1.412949 -0.000000 0.000000 0.000000 0.000000 0.000000 0.000000 0.000000 0.260257 0.876365 -8.591364 79.820239 64.417506 3.516489 -175.110032 58.759670 179.674475 -12.304525 25.320637 -2.911639 -0.150995 -1.354447 0.000000 0.000000 0.000000 0.000000 0.000000 0.000000 0.000000 
4.983035 17.300919 0.913822 -176.685739 -62.763408 -173.529396 -12.182505 2.442445 -0.790550 -7.444922 31.476287 -14.817704 -2.779011 -1.394182 3.299098 2.012318 14.623733 -4.851280 0.674901 0.000000 -25.164600 7.925696 -3.078695 7.212111 4.656833 11.410948 -14.093282 3.521368 1.437336 -0.806154 1.521769 10.013806 2.658219 1.292001 -0.000000 -33.081200 4.066177 1.314231 -8.865644 0.115410 0.696421 -5.738361 -4.959949 0.710401 -6.353831 6.215118 2.859495 7.407604 -1.875265 -0.357015 4.190855 0.000000 0.000000 0.000000 10.723216 7.181502 -6.657920 -30.647152 -69.781030 -41.638640 175.225799 -61.585291 179.542720 24.898603 -20.520046 -4.967136 -0.274042 1.415489 -0.000000 0.000000 0.000000 0.000000 0.000000 0.000000 0.000000 0.282028 1.082808 -8.532795 80.195787 64.472529 3.828488 -175.125267 58.931364 179.674057 -12.313229 25.288937 -2.909836 -0.151998 -1.353497 0.000000 0.000000 0.000000 0.000000 0.000000 0.000000 0.000000 
4.982363 17.300687 0.915797 -176.756311 -62.043975 -173.220602 -12.176284 2.440998 -0.858876 -7.681387 31.789968 -15.128977 -2.811664 -1.389803 3.356452 2.047761 14.837139 -4.905392 0.675300 0.000000 -25.086900 7.906406 -3.052637 7.302483 4.527275 11.794137 -14.583188 3.533103 1.422651 -0.610062 1.563476 10.323017 2.741442 1.358100 -0.000000 -33.217500 4.075859 1.252379 -8.883605 0.136888 0.629572 -5.781763 -4.922279 0.636103 -6.521788 6.292726 2.909608 7.368140 -1.841999 -0.355197 4.185344 0.000000 0.000000 0.000000 10.993789 6.905194 -6.725859 -28.434797 -69.233127 -44.056484 175.349507 -62.868050 179.537808 25.450078 -21.307839 -5.268202 -0.277199 1.418395 -0.000000 0.000000 0.000000 0.000000 0.000000 0.000000 0.000000 0.322025 1.310127 -8.461925 80.579439 64.537428 4.150444 -175.144312 59.117452 179.673728 -12.316697 25.251406 -2.906032 -0.153123 -1.352376 0.000000 0.000000 0.000000 0.000000 0.000000 0.000000 0.000000 
4.983381 17.300232 0.917998 -176.816076 -61.328874 -172.917672 -12.167768 2.443393 -0.935559 -7.924854 32.139650 -15.453455 -2.852255 -1.382032 3.399645 2.073905 14.992773 -4.941107 0.676400 -0.000000 -25.047700 7.890407 -3.019097 7.384366 4.400188 12.159143 -15.074571 3.545142 1.409478 -0.416655 1.605208 10.631068 2.831380 1.425300 0.000000 -33.369600 4.067335 1.160764 -8.885742 0.158095 0.533959 -5.825082 -4.884407 0.532472 -6.701966 6.391507 2.957709 7.321678 -1.806225 -0.353134 4.178408 0.000000 0.000000 0.000000 11.318783 6.560705 -6.792385 -26.083084 -68.573594 -46.731199 175.516246 -64.404804 179.533573 26.017382 -22.186276 -5.603378 -0.278964 1.420239 -0.000000 0.000000 0.000000 0.000000 0.000000 0.000000 0.000000 0.383780 1.558233 -8.380736 80.972425 64.612090 4.485753 -175.167329 59.317876 179.673441 -12.318032 25.212967 -2.901529 -0.154299 -1.351158 0.000000 0.000000 0.000000 0.000000 0.000000 0.000000 0.000000 
4.986117 17.299689 0.920097 -176.871279 -60.624047 -172.610892 -12.155697 2.450916 -1.015205 -8.184685 32.515480 -15.802379 -2.900926 -1.371640 3.424431 2.091265 15.093553 -4.956414 0.679501 0.000000 -25.046100 7.877987 -2.978797 7.461446 4.273856 12.505614 -15.580539 3.557177 1.398051 -0.222055 1.646525 10.932053 2.926918 1.492500 0.000000 -33.540400 4.036288 1.037499 -8.883960 0.178309 0.407572 -5.868900 -4.846981 0.397377 -6.887807 6.515481 3.004055 7.266919 -1.768532 -0.350812 4.169644 0.000000 0.000000 0.000000 11.712585 6.146409 -6.849844 -23.675785 -67.786670 -49.617051 175.729966 -66.233650 179.530025 26.612570 -23.094457 -5.962159 -0.279753 1.419570 -0.000000 0.000000 0.000000 0.000000 0.000000 0.000000 0.000000 0.471459 1.826756 -8.292993 81.379640 64.691979 4.838725 -175.194882 59.532458 179.673198 -12.316424 25.177748 -2.896725 -0.155533 -1.349922 0.000000 0.000000 0.000000 0.000000 0.000000 0.000000 0.000000 
